<mxfile host="app.diagrams.net" modified="2024-04-26T20:11:06.625Z" agent="Mozilla/5.0 (Windows NT 10.0; Win64; x64) AppleWebKit/537.36 (KHTML, like Gecko) Chrome/124.0.0.0 Safari/537.36" etag="GaAoGhwkD4p1sM6LmNUd" version="24.3.0" type="github">
  <diagram name="PÃ¡gina-1" id="cnUZU8eYBVjfrRozW8ME">
    <mxGraphModel dx="1434" dy="780" grid="1" gridSize="10" guides="1" tooltips="1" connect="1" arrows="1" fold="1" page="1" pageScale="1" pageWidth="827" pageHeight="1169" math="0" shadow="0">
      <root>
        <mxCell id="0" />
        <mxCell id="1" parent="0" />
        <mxCell id="I9MbdcxIfSHOCpKfiZTE-1" value="INICIO" style="ellipse;whiteSpace=wrap;html=1;" parent="1" vertex="1">
          <mxGeometry x="360" width="120" height="80" as="geometry" />
        </mxCell>
        <mxCell id="I9MbdcxIfSHOCpKfiZTE-51" style="edgeStyle=orthogonalEdgeStyle;rounded=0;orthogonalLoop=1;jettySize=auto;html=1;" parent="1" source="I9MbdcxIfSHOCpKfiZTE-2" edge="1">
          <mxGeometry relative="1" as="geometry">
            <mxPoint x="420" y="400" as="targetPoint" />
          </mxGeometry>
        </mxCell>
        <mxCell id="I9MbdcxIfSHOCpKfiZTE-2" value="n != 0" style="rhombus;whiteSpace=wrap;html=1;" parent="1" vertex="1">
          <mxGeometry x="380" y="260" width="80" height="80" as="geometry" />
        </mxCell>
        <mxCell id="I9MbdcxIfSHOCpKfiZTE-8" value="FINAL" style="ellipse;whiteSpace=wrap;html=1;" parent="1" vertex="1">
          <mxGeometry x="360" y="760" width="120" height="80" as="geometry" />
        </mxCell>
        <mxCell id="I9MbdcxIfSHOCpKfiZTE-11" value="" style="endArrow=none;dashed=1;html=1;rounded=0;exitX=0.5;exitY=0;exitDx=0;exitDy=0;entryX=0.5;entryY=1;entryDx=0;entryDy=0;" parent="1" source="I9MbdcxIfSHOCpKfiZTE-2" target="I9MbdcxIfSHOCpKfiZTE-21" edge="1">
          <mxGeometry width="50" height="50" relative="1" as="geometry">
            <mxPoint x="390" y="330" as="sourcePoint" />
            <mxPoint x="440" y="220" as="targetPoint" />
          </mxGeometry>
        </mxCell>
        <mxCell id="I9MbdcxIfSHOCpKfiZTE-12" value="Definir variables n , sum , numbers , promed , posi , nega&lt;div&gt;a 0.&lt;/div&gt;" style="rounded=0;whiteSpace=wrap;html=1;" parent="1" vertex="1">
          <mxGeometry x="360" y="100" width="120" height="60" as="geometry" />
        </mxCell>
        <mxCell id="I9MbdcxIfSHOCpKfiZTE-13" value="" style="endArrow=none;dashed=1;html=1;rounded=0;entryX=0.5;entryY=1;entryDx=0;entryDy=0;exitX=0.5;exitY=0;exitDx=0;exitDy=0;" parent="1" source="I9MbdcxIfSHOCpKfiZTE-12" target="I9MbdcxIfSHOCpKfiZTE-1" edge="1">
          <mxGeometry width="50" height="50" relative="1" as="geometry">
            <mxPoint x="520" y="80" as="sourcePoint" />
            <mxPoint x="520" y="40" as="targetPoint" />
          </mxGeometry>
        </mxCell>
        <mxCell id="I9MbdcxIfSHOCpKfiZTE-17" value="numers++&lt;div&gt;(suma 1+1)&lt;/div&gt;&lt;div&gt;sum += n&lt;/div&gt;&lt;div&gt;(suma el contenido con el numero insertado)&lt;/div&gt;" style="whiteSpace=wrap;html=1;aspect=fixed;" parent="1" vertex="1">
          <mxGeometry x="560" y="240" width="120" height="120" as="geometry" />
        </mxCell>
        <mxCell id="I9MbdcxIfSHOCpKfiZTE-18" value="mostrar numeros ingresados , suma total , promedio aritmetico , suma de positivos , suma de negativo" style="whiteSpace=wrap;html=1;aspect=fixed;" parent="1" vertex="1">
          <mxGeometry x="365" y="560" width="110" height="110" as="geometry" />
        </mxCell>
        <mxCell id="I9MbdcxIfSHOCpKfiZTE-20" value="" style="endArrow=none;dashed=1;html=1;rounded=0;entryX=0;entryY=0.5;entryDx=0;entryDy=0;exitX=1;exitY=0.5;exitDx=0;exitDy=0;" parent="1" source="I9MbdcxIfSHOCpKfiZTE-2" target="I9MbdcxIfSHOCpKfiZTE-17" edge="1">
          <mxGeometry width="50" height="50" relative="1" as="geometry">
            <mxPoint x="410" y="320" as="sourcePoint" />
            <mxPoint x="460" y="270" as="targetPoint" />
          </mxGeometry>
        </mxCell>
        <mxCell id="I9MbdcxIfSHOCpKfiZTE-38" value="SI" style="edgeLabel;html=1;align=center;verticalAlign=middle;resizable=0;points=[];" parent="I9MbdcxIfSHOCpKfiZTE-20" vertex="1" connectable="0">
          <mxGeometry x="-0.0167" y="-2" relative="1" as="geometry">
            <mxPoint as="offset" />
          </mxGeometry>
        </mxCell>
        <mxCell id="I9MbdcxIfSHOCpKfiZTE-37" style="edgeStyle=orthogonalEdgeStyle;rounded=0;orthogonalLoop=1;jettySize=auto;html=1;" parent="1" source="I9MbdcxIfSHOCpKfiZTE-21" target="I9MbdcxIfSHOCpKfiZTE-2" edge="1">
          <mxGeometry relative="1" as="geometry" />
        </mxCell>
        <mxCell id="I9MbdcxIfSHOCpKfiZTE-21" value="&lt;div&gt;n&lt;/div&gt;&lt;div&gt;(inserta n)&lt;/div&gt;" style="shape=parallelogram;perimeter=parallelogramPerimeter;whiteSpace=wrap;html=1;fixedSize=1;" parent="1" vertex="1">
          <mxGeometry x="360" y="180" width="120" height="60" as="geometry" />
        </mxCell>
        <mxCell id="I9MbdcxIfSHOCpKfiZTE-22" value="" style="endArrow=none;dashed=1;html=1;rounded=0;entryX=0.5;entryY=1;entryDx=0;entryDy=0;exitX=0.5;exitY=0;exitDx=0;exitDy=0;" parent="1" source="I9MbdcxIfSHOCpKfiZTE-21" target="I9MbdcxIfSHOCpKfiZTE-12" edge="1">
          <mxGeometry width="50" height="50" relative="1" as="geometry">
            <mxPoint x="450" y="220" as="sourcePoint" />
            <mxPoint x="500" y="170" as="targetPoint" />
          </mxGeometry>
        </mxCell>
        <mxCell id="I9MbdcxIfSHOCpKfiZTE-25" value="n &amp;gt; 0" style="rhombus;whiteSpace=wrap;html=1;" parent="1" vertex="1">
          <mxGeometry x="380" y="400" width="80" height="80" as="geometry" />
        </mxCell>
        <mxCell id="I9MbdcxIfSHOCpKfiZTE-27" value="posi += n" style="whiteSpace=wrap;html=1;aspect=fixed;" parent="1" vertex="1">
          <mxGeometry x="580" y="400" width="80" height="80" as="geometry" />
        </mxCell>
        <mxCell id="I9MbdcxIfSHOCpKfiZTE-28" value="nega += n" style="whiteSpace=wrap;html=1;aspect=fixed;" parent="1" vertex="1">
          <mxGeometry x="180" y="400" width="80" height="80" as="geometry" />
        </mxCell>
        <mxCell id="I9MbdcxIfSHOCpKfiZTE-29" value="" style="endArrow=none;dashed=1;html=1;rounded=0;entryX=0;entryY=0.5;entryDx=0;entryDy=0;exitX=1;exitY=0.5;exitDx=0;exitDy=0;" parent="1" source="I9MbdcxIfSHOCpKfiZTE-28" target="I9MbdcxIfSHOCpKfiZTE-25" edge="1">
          <mxGeometry width="50" height="50" relative="1" as="geometry">
            <mxPoint x="450" y="430" as="sourcePoint" />
            <mxPoint x="500" y="380" as="targetPoint" />
          </mxGeometry>
        </mxCell>
        <mxCell id="I9MbdcxIfSHOCpKfiZTE-47" value="NO" style="edgeLabel;html=1;align=center;verticalAlign=middle;resizable=0;points=[];" parent="I9MbdcxIfSHOCpKfiZTE-29" vertex="1" connectable="0">
          <mxGeometry x="0.0278" relative="1" as="geometry">
            <mxPoint as="offset" />
          </mxGeometry>
        </mxCell>
        <mxCell id="I9MbdcxIfSHOCpKfiZTE-32" value="" style="endArrow=none;dashed=1;html=1;rounded=0;entryX=0;entryY=0.5;entryDx=0;entryDy=0;exitX=1;exitY=0.5;exitDx=0;exitDy=0;" parent="1" source="I9MbdcxIfSHOCpKfiZTE-25" target="I9MbdcxIfSHOCpKfiZTE-27" edge="1">
          <mxGeometry width="50" height="50" relative="1" as="geometry">
            <mxPoint x="480" y="430" as="sourcePoint" />
            <mxPoint x="500" y="450" as="targetPoint" />
          </mxGeometry>
        </mxCell>
        <mxCell id="I9MbdcxIfSHOCpKfiZTE-40" value="SI" style="edgeLabel;html=1;align=center;verticalAlign=middle;resizable=0;points=[];" parent="I9MbdcxIfSHOCpKfiZTE-32" vertex="1" connectable="0">
          <mxGeometry x="-0.0972" y="1" relative="1" as="geometry">
            <mxPoint as="offset" />
          </mxGeometry>
        </mxCell>
        <mxCell id="I9MbdcxIfSHOCpKfiZTE-33" value="" style="endArrow=none;dashed=1;html=1;rounded=0;entryX=0.5;entryY=1;entryDx=0;entryDy=0;exitX=0.5;exitY=0;exitDx=0;exitDy=0;" parent="1" source="I9MbdcxIfSHOCpKfiZTE-25" target="I9MbdcxIfSHOCpKfiZTE-2" edge="1">
          <mxGeometry width="50" height="50" relative="1" as="geometry">
            <mxPoint x="450" y="500" as="sourcePoint" />
            <mxPoint x="500" y="450" as="targetPoint" />
          </mxGeometry>
        </mxCell>
        <mxCell id="I9MbdcxIfSHOCpKfiZTE-55" value="" style="endArrow=classic;html=1;rounded=0;exitX=0.5;exitY=1;exitDx=0;exitDy=0;entryX=0;entryY=0.5;entryDx=0;entryDy=0;" parent="1" source="I9MbdcxIfSHOCpKfiZTE-28" target="I9MbdcxIfSHOCpKfiZTE-18" edge="1">
          <mxGeometry width="50" height="50" relative="1" as="geometry">
            <mxPoint x="350" y="490" as="sourcePoint" />
            <mxPoint x="400" y="440" as="targetPoint" />
            <Array as="points">
              <mxPoint x="220" y="590" />
            </Array>
          </mxGeometry>
        </mxCell>
        <mxCell id="I9MbdcxIfSHOCpKfiZTE-56" value="" style="endArrow=classic;html=1;rounded=0;exitX=0.5;exitY=1;exitDx=0;exitDy=0;entryX=1;entryY=0.5;entryDx=0;entryDy=0;" parent="1" source="I9MbdcxIfSHOCpKfiZTE-27" target="I9MbdcxIfSHOCpKfiZTE-18" edge="1">
          <mxGeometry width="50" height="50" relative="1" as="geometry">
            <mxPoint x="350" y="490" as="sourcePoint" />
            <mxPoint x="400" y="440" as="targetPoint" />
            <Array as="points">
              <mxPoint x="620" y="590" />
            </Array>
          </mxGeometry>
        </mxCell>
        <mxCell id="I9MbdcxIfSHOCpKfiZTE-57" value="" style="endArrow=classic;html=1;rounded=0;exitX=1;exitY=0.5;exitDx=0;exitDy=0;entryX=1;entryY=0.5;entryDx=0;entryDy=0;" parent="1" source="I9MbdcxIfSHOCpKfiZTE-17" target="I9MbdcxIfSHOCpKfiZTE-18" edge="1">
          <mxGeometry width="50" height="50" relative="1" as="geometry">
            <mxPoint x="350" y="490" as="sourcePoint" />
            <mxPoint x="760" y="640" as="targetPoint" />
            <Array as="points">
              <mxPoint x="760" y="300" />
              <mxPoint x="760" y="650" />
            </Array>
          </mxGeometry>
        </mxCell>
        <mxCell id="I9MbdcxIfSHOCpKfiZTE-58" value="" style="endArrow=classic;html=1;rounded=0;exitX=0;exitY=0.5;exitDx=0;exitDy=0;entryX=0;entryY=0.5;entryDx=0;entryDy=0;" parent="1" source="I9MbdcxIfSHOCpKfiZTE-2" target="I9MbdcxIfSHOCpKfiZTE-18" edge="1">
          <mxGeometry width="50" height="50" relative="1" as="geometry">
            <mxPoint x="350" y="570" as="sourcePoint" />
            <mxPoint x="400" y="520" as="targetPoint" />
            <Array as="points">
              <mxPoint x="120" y="300" />
              <mxPoint x="120" y="640" />
            </Array>
          </mxGeometry>
        </mxCell>
        <mxCell id="I9MbdcxIfSHOCpKfiZTE-59" value="" style="endArrow=classic;html=1;rounded=0;exitX=0.5;exitY=1;exitDx=0;exitDy=0;entryX=1;entryY=0.5;entryDx=0;entryDy=0;" parent="1" source="I9MbdcxIfSHOCpKfiZTE-25" target="I9MbdcxIfSHOCpKfiZTE-21" edge="1">
          <mxGeometry width="50" height="50" relative="1" as="geometry">
            <mxPoint x="470" y="450" as="sourcePoint" />
            <mxPoint x="520" y="400" as="targetPoint" />
            <Array as="points">
              <mxPoint x="420" y="520" />
              <mxPoint x="800" y="520" />
              <mxPoint x="800" y="210" />
            </Array>
          </mxGeometry>
        </mxCell>
        <mxCell id="I9MbdcxIfSHOCpKfiZTE-60" value="" style="endArrow=classic;html=1;rounded=0;exitX=0.5;exitY=1;exitDx=0;exitDy=0;entryX=0.5;entryY=0;entryDx=0;entryDy=0;" parent="1" source="I9MbdcxIfSHOCpKfiZTE-18" target="I9MbdcxIfSHOCpKfiZTE-8" edge="1">
          <mxGeometry width="50" height="50" relative="1" as="geometry">
            <mxPoint x="470" y="870" as="sourcePoint" />
            <mxPoint x="520" y="820" as="targetPoint" />
          </mxGeometry>
        </mxCell>
      </root>
    </mxGraphModel>
  </diagram>
</mxfile>
